<svg xmlns="http://www.w3.org/2000/svg" height="40px" viewBox="0 -960 960 960" width="40px" fill="#FFFFFF"><path d="M280.31-118.67q-33.61 0-56.75-23.14-23.15-23.15-23.15-56.76v-538.71h-15.28q-13.68 0-23.57-10.05-9.89-10.06-9.89-24 0-13.95 9.88-23.75 9.88-9.79 23.58-9.79h167.59q0-15.13 10.24-25.49 10.25-10.36 25.6-10.36h184.21q15.35 0 25.6 10.25 10.25 10.25 10.25 25.6H776.2q13.98 0 24.06 10.05 10.07 10.05 10.07 24t-10.07 23.74q-10.08 9.8-24.06 9.8h-15.28v538.71q0 33.61-23.14 56.76-23.15 23.14-56.76 23.14H280.31Zm413.02-618.61H268v538.71q0 5.39 3.59 8.85t8.72 3.46h400.71q5.13 0 8.72-3.46 3.59-3.46 3.59-8.85v-538.71Zm-270 457.17q10.13-9.89 10.13-23.58v-316.82q0-13.73-10.26-23.93t-24.01-10.2q-13.75 0-23.53 10.2-9.79 10.2-9.79 23.93v316.82q0 13.69 9.92 23.58 9.92 9.88 23.67 9.88 13.75 0 23.87-9.88Zm162.67 0q10.13-9.89 10.13-23.58v-316.82q0-13.73-10.27-23.93-10.26-10.2-24.01-10.2-13.75 0-23.53 10.2-9.78 10.2-9.78 23.93v316.82q0 13.69 9.92 23.58 9.91 9.88 23.66 9.88t23.88-9.88ZM268-737.28V-186.26v-551.02Z"/></svg>