<svg xmlns="http://www.w3.org/2000/svg" height="40px" viewBox="0 -960 960 960" width="40px" fill="#1f1f1f"><path d="M202.57-122.67q-32.79 0-56.35-23.55-23.55-23.56-23.55-56.35v-554.86q0-32.79 23.55-56.35 23.56-23.55 56.35-23.55h215.76q13.7 0 23.58 9.91 9.88 9.92 9.88 24 0 14.09-9.88 23.88-9.88 9.8-23.58 9.8H202.57q-4.62 0-8.47 3.84-3.84 3.85-3.84 8.47v554.86q0 4.62 3.84 8.47 3.85 3.84 8.47 3.84h554.86q4.62 0 8.47-3.84 3.84-3.85 3.84-8.47v-215.76q0-13.7 9.92-23.58 9.92-9.88 24-9.88t23.88 9.88q9.79 9.88 9.79 23.58v215.76q0 32.79-23.55 56.35-23.56 23.55-56.35 23.55H202.57Zm447.17-527.07h-85.87q-14.36 0-24.25-9.92-9.88-9.92-9.88-24t9.88-23.88q9.89-9.79 24.25-9.79h85.87v-86.54q0-13.7 9.92-23.58 9.92-9.88 24-9.88t23.88 9.88q9.79 9.88 9.79 23.58v86.54h86.54q13.7 0 23.58 9.91 9.88 9.92 9.88 24 0 14.09-9.88 23.88-9.88 9.8-23.58 9.8h-86.54v85.87q0 14.36-9.91 24.25-9.92 9.88-24 9.88-14.09 0-23.88-9.88-9.8-9.89-9.8-24.25v-85.87Z"/></svg>